<svg width="13" height="17" viewBox="0 0 13 17" fill="none" xmlns="http://www.w3.org/2000/svg">
<path d="M6.45151 0.0109024C5.612 0.0109024 4.80748 0.180418 4.03793 0.519449C3.26838 0.85848 2.60377 1.31052 2.0441 1.87558C1.48443 2.44063 1.03508 3.11062 0.696047 3.88555C0.357016 4.66047 0.1875 5.46769 0.1875 6.3072C0.1875 6.78077 0.252077 7.27586 0.381232 7.79248C0.510387 8.3091 0.661068 8.78805 0.833274 9.22933C1.00548 9.67061 1.25303 10.1603 1.57591 10.6985C1.8988 11.2366 2.18671 11.6913 2.43964 12.0627C2.69256 12.434 3.03429 12.886 3.4648 13.4188C3.89532 13.9515 4.22897 14.3578 4.46575 14.6377C4.70254 14.9175 5.03619 15.305 5.4667 15.8001C5.59586 15.9508 5.69272 16.0584 5.7573 16.123C5.77883 16.1553 5.8165 16.1956 5.87031 16.244C5.92413 16.2925 6.02099 16.3544 6.16091 16.4297C6.30083 16.505 6.43536 16.5427 6.56452 16.5427H6.61295C6.91431 16.5427 7.18338 16.4028 7.42017 16.123C10.8643 12.1622 12.5864 8.8903 12.5864 6.3072C12.5864 4.50979 12.0375 3.01913 10.9396 1.83521C9.79877 0.619006 8.30273 0.0109024 6.45151 0.0109024ZM6.64524 15.4288C6.63448 15.4503 6.61295 15.4718 6.58066 15.4933C6.55914 15.4718 6.53761 15.4503 6.51609 15.4288L6.24163 15.122C5.83264 14.6484 5.51514 14.2798 5.28911 14.0161C5.06309 13.7524 4.74559 13.3677 4.3366 12.8618C3.92761 12.3559 3.60472 11.9281 3.36794 11.5783C3.13115 11.2285 2.8567 10.8034 2.54458 10.3029C2.23245 9.80245 1.99298 9.35041 1.82615 8.9468C1.65933 8.54319 1.51672 8.10729 1.39833 7.63911C1.27993 7.17092 1.22074 6.72695 1.22074 6.3072C1.22074 5.37083 1.45752 4.49634 1.93109 3.68374C2.40466 2.87114 3.04236 2.22806 3.8442 1.75449C4.64603 1.28092 5.51514 1.04414 6.45151 1.04414C7.30178 1.04414 8.06056 1.19213 8.72786 1.48811C9.39516 1.78409 9.93062 2.18501 10.3342 2.69086C10.7378 3.19672 11.0419 3.75639 11.2464 4.36988C11.4509 4.98336 11.5531 5.62914 11.5531 6.3072C11.5531 8.63199 9.91716 11.6725 6.64524 15.4288ZM6.40307 3.12676C6.06943 3.12676 5.74385 3.18058 5.42634 3.28821C5.10884 3.39583 4.82362 3.54382 4.57069 3.73217C4.31776 3.92053 4.09443 4.14386 3.9007 4.40217C3.70697 4.66047 3.55898 4.94569 3.45673 5.25782C3.35448 5.56994 3.30336 5.89283 3.30336 6.22648C3.30336 7.08751 3.60741 7.81939 4.21552 8.42211C4.82362 9.02483 5.5555 9.32619 6.41115 9.32619C7.2668 9.32619 7.99598 9.02483 8.59871 8.42211C9.20143 7.81939 9.50279 7.08751 9.50279 6.22648C9.50279 5.80672 9.42207 5.40581 9.26062 5.02372C9.09918 4.64164 8.87854 4.31337 8.59871 4.03892C8.31887 3.76446 7.98791 3.54382 7.60583 3.377C7.22375 3.21017 6.82283 3.12676 6.40307 3.12676ZM6.40307 8.29295C5.83264 8.29295 5.34293 8.08846 4.93394 7.67947C4.52495 7.27048 4.32045 6.78077 4.32045 6.21033C4.32045 5.6399 4.52226 5.15288 4.92587 4.74927C5.32948 4.34566 5.8165 4.14386 6.38693 4.14386C6.95736 4.14386 7.44439 4.34566 7.84799 4.74927C8.2516 5.15288 8.45341 5.6399 8.45341 6.21033C8.45341 6.92068 8.16819 7.48574 7.59776 7.90549C7.24258 8.1638 6.84435 8.29295 6.40307 8.29295Z" fill="white"/>
</svg>
