<svg width="16" height="33" viewBox="0 0 16 33" fill="none" xmlns="http://www.w3.org/2000/svg">
<path d="M13.6246 20.2032C13.3575 20.204 13.0937 20.2623 12.8511 20.3741C12.6084 20.4859 12.3927 20.6485 12.2184 20.851L4.20699 16.8451C4.26386 16.5869 4.26386 16.3195 4.20699 16.0613L12.2184 12.0554C12.5174 12.3907 12.9283 12.6056 13.3742 12.66C13.8202 12.7144 14.2707 12.6045 14.6415 12.3509C15.0123 12.0972 15.278 11.7172 15.389 11.2819C15.4999 10.8465 15.4485 10.3857 15.2444 9.98548C15.0402 9.58528 14.6973 9.27314 14.2798 9.10741C13.8622 8.94168 13.3986 8.93371 12.9755 9.085C12.5525 9.23628 12.1991 9.53646 11.9813 9.92941C11.7636 10.3224 11.6964 10.7812 11.7923 11.2201L3.7809 15.226C3.53067 14.9369 3.19805 14.7313 2.82763 14.6366C2.45722 14.5419 2.06671 14.5627 1.70846 14.6962C1.3502 14.8298 1.04133 15.0696 0.823245 15.3836C0.605158 15.6977 0.488281 16.0709 0.488281 16.4532C0.488281 16.8355 0.605158 17.2087 0.823245 17.5227C1.04133 17.8367 1.3502 18.0766 1.70846 18.2101C2.06671 18.3436 2.45722 18.3645 2.82763 18.2698C3.19805 18.1751 3.53067 17.9694 3.7809 17.6804L11.7923 21.6863C11.7113 22.0655 11.7498 22.4604 11.9025 22.8168C12.0552 23.1732 12.3147 23.4734 12.6451 23.6762C12.9756 23.879 13.3608 23.9744 13.7477 23.9492C14.1346 23.924 14.5042 23.7795 14.8055 23.5356C15.1069 23.2917 15.3253 22.9603 15.4305 22.5871C15.5357 22.214 15.5227 21.8174 15.3932 21.4519C15.2637 21.0865 15.0241 20.7701 14.7074 20.5465C14.3906 20.3229 14.0124 20.2029 13.6246 20.2032ZM13.6246 9.89068C13.8101 9.89068 13.9913 9.94567 14.1455 10.0487C14.2997 10.1517 14.4198 10.2981 14.4908 10.4694C14.5617 10.6407 14.5803 10.8292 14.5441 11.0111C14.508 11.1929 14.4187 11.36 14.2876 11.4911C14.1564 11.6222 13.9894 11.7115 13.8075 11.7477C13.6257 11.7838 13.4372 11.7653 13.2659 11.6943C13.0946 11.6234 12.9482 11.5032 12.8451 11.349C12.7421 11.1949 12.6871 11.0136 12.6871 10.8282C12.6871 10.5795 12.7859 10.3411 12.9617 10.1653C13.1376 9.98946 13.376 9.89068 13.6246 9.89068ZM2.37465 17.3907C2.18923 17.3907 2.00797 17.3357 1.8538 17.2327C1.69963 17.1297 1.57947 16.9833 1.50851 16.8119C1.43755 16.6406 1.41899 16.4521 1.45516 16.2703C1.49134 16.0884 1.58062 15.9214 1.71173 15.7903C1.84285 15.6592 2.00989 15.5699 2.19175 15.5337C2.37361 15.4975 2.56211 15.5161 2.73341 15.587C2.90472 15.658 3.05114 15.7782 3.15415 15.9323C3.25716 16.0865 3.31215 16.2678 3.31215 16.4532C3.31215 16.7018 3.21338 16.9403 3.03756 17.1161C2.86174 17.2919 2.62329 17.3907 2.37465 17.3907ZM13.6246 23.0157C13.4392 23.0157 13.258 22.9607 13.1038 22.8577C12.9496 22.7547 12.8295 22.6083 12.7585 22.4369C12.6876 22.2656 12.669 22.0771 12.7052 21.8953C12.7413 21.7134 12.8306 21.5464 12.9617 21.4153C13.0928 21.2842 13.2599 21.1949 13.4418 21.1587C13.6236 21.1225 13.8121 21.1411 13.9834 21.212C14.1547 21.283 14.3011 21.4032 14.4042 21.5573C14.5072 21.7115 14.5621 21.8928 14.5621 22.0782C14.5621 22.3268 14.4634 22.5653 14.2876 22.7411C14.1117 22.9169 13.8733 23.0157 13.6246 23.0157Z" fill="white" stroke="white" stroke-width="0.46875"/>
</svg>
